# xmcd
#
# Track frame offsets: 
#        150
#        22434
#        42429
#        61508
#        85914
#        111501
#        130879
#        149565
#        153410
#        170573
#        186691
#        211403
#
# Disc length: 3046 seconds
#
# Revision: 1
# Processed by: cddbd v1.5.2PL0 Copyright (c) Steve Scherf et al.
# Submitted via: ExactAudioCopy v1.3
#
DISCID=ba0be40c
DTITLE=Will Johnson - Vultures Await
DYEAR=2004
DGENRE=Folk
TTITLE0=Catherine Dupree
TTITLE1=Just To Know What You've Been Dreaming
TTITLE2=Vultures Await
TTITLE3=Just Some Silence
TTITLE4=Sleep a While
TTITLE5=As Victims Would
TTITLE6=Closing Down My House
TTITLE7=On, Caledonia
TTITLE8=Your Bulldozer
TTITLE9=A Thousand Other Parts
TTITLE10=Fly, My Sweet Dove
TTITLE11=Nothin' but Godzilla
EXTD=
EXTT0=
EXTT1=
EXTT2=
EXTT3=
EXTT4=
EXTT5=
EXTT6=
EXTT7=
EXTT8=
EXTT9=
EXTT10=
EXTT11=
PLAYORDER=
